<svg width="38" height="38" viewBox="0 0 38 38" fill="none" xmlns="http://www.w3.org/2000/svg">
<circle cx="19" cy="19" r="19" fill="#D9D9D9"/>
<path d="M10 17C10 16.0572 10 15.5858 10.2929 15.2929C10.5858 15 11.0572 15 12 15H26C26.9428 15 27.4142 15 27.7071 15.2929C28 15.5858 28 16.0572 28 17V18.5C28 18.9659 28 19.1989 27.9239 19.3827C27.8224 19.6277 27.6277 19.8224 27.3827 19.9239C27.1989 20 26.9659 20 26.5 20V20C26.0341 20 25.8011 20 25.6173 20.0761C25.3723 20.1776 25.1776 20.3723 25.0761 20.6173C25 20.8011 25 21.0341 25 21.5V25C25 25.9428 25 26.4142 24.7071 26.7071C24.4142 27 23.9428 27 23 27H15C14.0572 27 13.5858 27 13.2929 26.7071C13 26.4142 13 25.9428 13 25V21.5C13 21.0341 13 20.8011 12.9239 20.6173C12.8224 20.3723 12.6277 20.1776 12.3827 20.0761C12.1989 20 11.9659 20 11.5 20V20C11.0341 20 10.8011 20 10.6173 19.9239C10.3723 19.8224 10.1776 19.6277 10.0761 19.3827C10 19.1989 10 18.9659 10 18.5V17Z" stroke="#222222"/>
<path d="M12 20H26" stroke="#222222" stroke-linecap="round"/>
<path d="M19 14L19 27" stroke="#222222" stroke-linecap="round"/>
<path d="M19 14L18.1214 13.1214C17.0551 12.0551 15.7552 11.2517 14.3246 10.7749V10.7749C13.181 10.3937 12 11.2449 12 12.4503V12.6325C12 13.4491 12.5226 14.1742 13.2974 14.4325L15 15" stroke="#222222" stroke-linecap="round"/>
<path d="M19 14L19.8786 13.1214C20.9449 12.0551 22.2448 11.2517 23.6754 10.7749V10.7749C24.819 10.3937 26 11.2449 26 12.4503V12.6325C26 13.4491 25.4774 14.1742 24.7026 14.4325L23 15" stroke="#222222" stroke-linecap="round"/>
</svg>
