<svg width="38" height="38" viewBox="0 0 38 38" fill="none" xmlns="http://www.w3.org/2000/svg">
<circle cx="19" cy="19" r="19" fill="#D9D9D9"/>
<path d="M18.8604 11.0006C22.2823 10.9707 25.6209 12.0387 28.3878 14.0435C28.5012 14.1257 28.558 14.1669 28.5673 14.2291C28.5766 14.2914 28.5339 14.3481 28.4485 14.4614L19.2353 26.6878C19.1272 26.8312 19.0731 26.903 18.9992 26.9036C18.9252 26.9042 18.8699 26.8335 18.7593 26.6919L9.33412 14.6282C9.24672 14.5164 9.20303 14.4604 9.21128 14.398C9.21954 14.3356 9.27555 14.2935 9.38756 14.2093C12.119 12.1566 15.4385 11.0305 18.8604 11.0006Z" stroke="#33363F" stroke-linecap="round"/>
<path d="M18.8866 14.0005C21.6481 13.9764 24.3428 14.8323 26.5819 16.44C26.6955 16.5215 26.7523 16.5623 26.7618 16.6247C26.7713 16.6871 26.7286 16.7439 26.6431 16.8573L19.2353 26.6878C19.1272 26.8312 19.0731 26.903 18.9992 26.9036C18.9252 26.9042 18.8699 26.8335 18.7593 26.6919L11.1811 16.9923C11.0936 16.8803 11.0499 16.8243 11.0583 16.7617C11.0667 16.6992 11.1228 16.6574 11.2349 16.5739C13.4456 14.9274 16.125 14.0246 18.8866 14.0005Z" stroke="#33363F" stroke-linecap="round"/>
<mask id="mask0_2_49" style="mask-type:alpha" maskUnits="userSpaceOnUse" x="9" y="11" width="20" height="16">
<path d="M28.4485 14.4614C28.5339 14.3481 28.5766 14.2914 28.5673 14.2291C28.558 14.1669 28.5012 14.1257 28.3878 14.0435C25.6209 12.0387 22.2823 10.9707 18.8604 11.0006C15.4385 11.0305 12.119 12.1566 9.38756 14.2093C9.27555 14.2935 9.21954 14.3356 9.21128 14.398C9.20303 14.4604 9.24672 14.5164 9.33412 14.6282L18.7593 26.6919C18.8699 26.8335 18.9252 26.9042 18.9992 26.9036C19.0731 26.903 19.1272 26.8312 19.2353 26.6878L28.4485 14.4614Z" fill="#33363F"/>
</mask>
<g mask="url(#mask0_2_49)">
<path fill-rule="evenodd" clip-rule="evenodd" d="M19 17C19 17.5523 18.5523 18 18 18C17.4477 18 17 17.5523 17 17C17 16.4477 17.4477 16 18 16C18.5523 16 19 16.4477 19 17ZM25 20C25 21.1046 24.1046 22 23 22C21.8954 22 21 21.1046 21 20C21 18.8954 21.8954 18 23 18C24.1046 18 25 18.8954 25 20ZM16 24C17.1046 24 18 23.1046 18 22C18 20.8954 17.1046 20 16 20C14.8954 20 14 20.8954 14 22C14 23.1046 14.8954 24 16 24Z" fill="#33363F"/>
</g>
</svg>
