<svg width="38" height="38" viewBox="0 0 38 38" fill="none" xmlns="http://www.w3.org/2000/svg">
<circle cx="19" cy="19" r="19" fill="#D9D9D9"/>
<path d="M13.5 15.5C13.5 14.9477 13.9477 14.5 14.5 14.5H23.5C24.0523 14.5 24.5 14.9477 24.5 15.5V25.5C24.5 26.0523 24.0523 26.5 23.5 26.5H14.5C13.9477 26.5 13.5 26.0523 13.5 25.5V15.5Z" stroke="#222222" stroke-linecap="round" stroke-linejoin="round"/>
<path d="M15.5 26.5V27.5C15.5 28.0523 15.9477 28.5 16.5 28.5V28.5C17.0523 28.5 17.5 28.0523 17.5 27.5V26.5" stroke="#222222" stroke-linecap="round" stroke-linejoin="round"/>
<path d="M20.5 26.5V27.5C20.5 28.0523 20.9477 28.5 21.5 28.5V28.5C22.0523 28.5 22.5 28.0523 22.5 27.5V26.5" stroke="#222222" stroke-linecap="round" stroke-linejoin="round"/>
<path d="M16.5 14.5V11.5C16.5 10.9477 16.9477 10.5 17.5 10.5H20.5C21.0523 10.5 21.5 10.9477 21.5 11.5V14.5" stroke="#222222" stroke-linecap="round" stroke-linejoin="round"/>
</svg>
